<svg version="1.1" viewBox="0.0 0.0 234.13385826771653 181.8503937007874" fill="none" stroke="none" stroke-linecap="square" stroke-miterlimit="10" xmlns:xlink="http://www.w3.org/1999/xlink" xmlns="http://www.w3.org/2000/svg"><clipPath id="p.0"><path d="m0 0l234.13387 0l0 181.85039l-234.13387 0l0 -181.85039z" clip-rule="nonzero"/></clipPath><g clip-path="url(#p.0)"><path fill="#000000" fill-opacity="0.0" d="m0 0l234.13387 0l0 181.85039l-234.13387 0z" fill-rule="evenodd"/><path fill="#807e69" d="m66.3861 153.00394l-3.094452 -10.459122l0 0c-18.568188 -6.984955 -26.138256 -22.231133 -17.488731 -35.222412c8.6495285 -12.99128 30.687935 -19.476036 50.91416 -14.981392c20.226227 4.494644 32.020866 18.497742 27.248543 32.35061c-4.772331 13.8528595 -24.549805 23.021896 -45.69085 21.182724z" fill-rule="evenodd"/><path fill="#00a5ce" d="m167.74776 97.82284l3.094452 -10.459122l0 0c18.568192 -6.9849625 26.13826 -22.231133 17.488724 -35.222412c-8.649521 -12.991283 -30.687927 -19.47604 -50.914154 -14.981396c-20.226227 4.494644 -32.020874 18.497738 -27.248543 32.350605c4.772331 13.852867 24.549812 23.021896 45.69085 21.182732z" fill-rule="evenodd"/></g></svg>